<svg height="320" version="1.1" width="320" xmlns="http://www.w3.org/2000/svg" xmlns:xlink="http://www.w3.org/1999/xlink" style="overflow: hidden; position: relative; left: -0.5px; top: -0.796875px;" viewBox="0 0 320 320" preserveAspectRatio="xMidYMid meet" id="main_svg"><svg height="320" version="1.1" width="320" xmlns="http://www.w3.org/2000/svg" xmlns:xlink="http://www.w3.org/1999/xlink" style="overflow: hidden; position: relative;" viewBox="0 0 160 160" preserveAspectRatio="xMidYMid meet" id="imported_svg_layer_1"><path fill="#686de0" stroke="none" d="M120.038,0H39.962C17.892,0,0,17.888,0,39.962V120.038C0,142.108,17.888,160,39.962,160H120.038C142.108,160,160,142.112,160,120.038V39.962C160,17.892,142.112,0,120.038,0Z" stroke-width="0" transform="matrix(1,0,0,1,0,0)" style="-webkit-tap-highlight-color: rgba(0, 0, 0, 0);"></path><desc style="-webkit-tap-highlight-color: rgba(0, 0, 0, 0);">Created with Logotizer</desc><defs style="-webkit-tap-highlight-color: rgba(0, 0, 0, 0);"></defs></svg><svg height="320" version="1.1" width="320" xmlns="http://www.w3.org/2000/svg" xmlns:xlink="http://www.w3.org/1999/xlink" style="overflow: hidden; position: relative;" viewBox="0 0 160 160" preserveAspectRatio="xMidYMid meet" id="imported_svg_layer_2"><desc style="-webkit-tap-highlight-color: rgba(0, 0, 0, 0);">Created with Logotizer</desc><defs style="-webkit-tap-highlight-color: rgba(0, 0, 0, 0);"></defs><path fill="#ffffff" stroke="#d5d5d5" d="M119.4201,90H158.77575000000002C158.79687,89.83075,158.82012,89.66223,158.8402,89.49261L79.4201,20L0,89.4926C0.0201,89.66223,0.04333,89.83075,0.06445,90H39.4201V149.27080999999998A79.92753,79.92753,0,0,0,119.42009999999999,149.27080999999998V90Z" stroke-width="2" transform="matrix(1,0,0,1,0,0)" style="-webkit-tap-highlight-color: rgba(0, 0, 0, 0); display: none; cursor: move;"></path></svg><desc style="-webkit-tap-highlight-color: rgba(0, 0, 0, 0);">Created with Logotizer</desc><defs style="-webkit-tap-highlight-color: rgba(0, 0, 0, 0);"><linearGradient id="gradient_r12rbp1tpxh4h5rf6b06oz" x1="1.8369701987210297e-16" y1="0" x2="0" y2="1" style="-webkit-tap-highlight-color: rgba(0, 0, 0, 0);"><stop offset="0%" stop-color="#ffffff" stop-opacity="1" style="-webkit-tap-highlight-color: rgba(0, 0, 0, 0);"></stop><stop offset="100%" stop-color="#333333" stop-opacity="1" style="-webkit-tap-highlight-color: rgba(0, 0, 0, 0);"></stop></linearGradient></defs><path fill="#ffffff" stroke="none" d="M-156.04,0L-149.6,-156.68Q-149.25,-165.59,-140.69,-165.59L-116.79,-165.59Q-109.99,-165.59,-107.88,-158.44L-76.94,-57.3Q-75.19,-51.56,-70.61,-35.04L-66.4,-35.04Q-61.36,-53.44,-60.07,-57.89L-29.13,-158.44Q-27.37,-165.59,-19.99,-165.59L3.68,-165.59Q7.78,-165.59,10.07,-163.3Q12.35,-161.02,12.35,-156.68L19.39,0L-1.83,0L-7.8,-148.13L-12.84,-148.13L-49.76,-25.9Q-51.63,-18.75,-58.9,-18.75L-77.88,-18.75Q-85.26,-18.75,-87.49,-25.9L-124.4,-148.13L-129.21,-148.13L-134.95,0L-156.04,0ZM51.49,-82.85Q51.49,-106.88,54.89,-122.93Q58.29,-138.98,66.14,-149.3Q73.99,-159.61,86.18,-164.06Q98.37,-168.52,116.53,-168.52Q131.65,-168.52,141.32,-167.46Q150.99,-166.41,161.65,-163.71L159.54,-147.66Q137.98,-149.77,116.53,-149.77Q104.23,-149.77,96.2,-146.48Q88.17,-143.2,83.08,-135.18Q77.98,-127.15,75.87,-114.67Q73.76,-102.19,73.76,-82.85Q73.76,-67.38,75.11,-56.48Q76.46,-45.59,79.44,-37.56Q82.43,-29.53,87.53,-24.84Q92.63,-20.16,99.66,-17.99Q106.69,-15.82,116.53,-15.82Q143.49,-15.82,162.82,-18.52L165.05,-2.7Q144.78,2.93,116.53,2.93Q92.28,2.93,78.27,-5.45Q64.27,-13.83,57.88,-32.34Q51.49,-50.86,51.49,-82.85Z" transform="matrix(0.76,0,0,0.76,160,225.6019)" style="-webkit-tap-highlight-color: rgba(0, 0, 0, 0);"></path></svg>